<?xml version="1.0" encoding="utf-8"?>
<!-- Generator: Adobe Illustrator 21.1.0, SVG Export Plug-In . SVG Version: 6.00 Build 0)  -->
<svg version="1.1" id="Layer_1" xmlns="http://www.w3.org/2000/svg" xmlns:xlink="http://www.w3.org/1999/xlink" x="0px" y="0px" viewBox="0 0 128 128" style="enable-background:new 0 0 128 128;" xml:space="preserve">

<g>
	<g>
		<path d="M114,111V41c0-5.5-4.5-10-10-10H24c-5.5,0-10,4.5-10,10v70H4v3c0,5.5,4.5,10,10,10h100c5.5,0,10-4.5,10-10v-3
			H114z" style="fill:transparent;"/>
	</g>
	<g>
		<g>
			<path d="M95,62c-12.1,0-22-9.9-22-22c0-6,2.4-11.6,6.7-15.8c4.3-4.2,10-6.4,16.1-6.2c11.7,0.4,21.2,10.5,21.2,22.4
				V41c0,5-4,9-9,9s-9-4-9-9v-1.3c0-2-1.7-3.7-3.7-3.7c-2.3,0-4.2,1.7-4.3,3.9c0,1.1,0.4,2.1,1.1,2.9c0.8,0.8,1.8,1.2,2.9,1.2
				c1.7,0,3,1.3,3,3s-1.3,3-3,3c-2.7,0-5.3-1.1-7.2-3c-1.9-2-2.9-4.5-2.8-7.3c0.2-5.3,4.8-9.7,10.3-9.7c5.4,0,9.7,4.4,9.7,9.7V41
				c0,1.7,1.3,3,3,3s3-1.3,3-3v-0.5c0-8.8-6.9-16.1-15.4-16.4c-4.4-0.1-8.5,1.4-11.7,4.5c-3.2,3-4.9,7.1-4.9,11.5
				c0,8.8,7.2,16,16,16c1.7,0,3,1.3,3,3S96.7,62,95,62z" style="fill:#ddff09;"/>
		</g>
	</g>
	<g>
		<path d="M74,114H54c-1.7,0-3-1.3-3-3s1.3-3,3-3h20c1.7,0,3,1.3,3,3S75.7,114,74,114z" style="fill:#ddff09;"/>
	</g>
	<g>
		<path d="M114,127H14c-7.2,0-13-5.8-13-13v-3c0-1.7,1.3-3,3-3h35c1.7,0,3,1.3,3,3s-1.3,3-3,3H7c0,3.9,3.1,7,7,7h100
			c3.9,0,7-3.1,7-7H89c-1.7,0-3-1.3-3-3s1.3-3,3-3h35c1.7,0,3,1.3,3,3v3C127,121.2,121.2,127,114,127z" style="fill:#ddff09;"/>
	</g>
	<g>
		<path d="M14,103c-1.7,0-3-1.3-3-3V41c0-7.2,5.8-13,13-13h37c1.7,0,3,1.3,3,3s-1.3,3-3,3H24c-3.9,0-7,3.1-7,7v59
			C17,101.7,15.7,103,14,103z" style="fill:#ddff09;"/>
	</g>
	<g>
		<path d="M114,103c-1.7,0-3-1.3-3-3V61c0-1.7,1.3-3,3-3s3,1.3,3,3v39C117,101.7,115.7,103,114,103z" style="fill:#ddff09;"/>
	</g>
</g>
</svg>
